<svg id="logo" data-name="Layer 1" xmlns="http://www.w3.org/2000/svg" viewBox="0 0 1200 150.28"><defs><style>.cls-1{fill:#fff;}.cls-2{fill:#ed1c24;}.cls-3{fill:#231f20;}</style></defs><title>myPieLogoWide1</title><rect class="cls-1" y="-0.06" width="1200" height="150.09"/><rect class="cls-2" y="37.64" width="1200" height="15"/><rect class="cls-2" y="67.64" width="1200" height="15"/><rect class="cls-2" y="97.64" width="1200" height="15"/><ellipse class="cls-2" cx="600" cy="75.14" rx="73.63" ry="75"/><path class="cls-1" d="M600,149.07a70.9,70.9,0,0,1-28.25-5.81,72.17,72.17,0,0,1-23.07-15.84,73.84,73.84,0,0,1-15.56-23.5,75.48,75.48,0,0,1,0-57.55,73.73,73.73,0,0,1,15.56-23.5A72.36,72.36,0,0,1,571.75,7a71.59,71.59,0,0,1,56.5,0,72.36,72.36,0,0,1,23.07,15.85,73.73,73.73,0,0,1,15.56,23.5,75.48,75.48,0,0,1,0,57.55,73.84,73.84,0,0,1-15.56,23.5,72.17,72.17,0,0,1-23.07,15.84A70.9,70.9,0,0,1,600,149.07Z"/><path class="cls-2" d="M600,146.93a68.93,68.93,0,0,1-27.43-5.64,70.3,70.3,0,0,1-22.41-15.39,71.63,71.63,0,0,1-15.1-22.82,73.23,73.23,0,0,1,0-55.88,71.74,71.74,0,0,1,15.1-22.82A70.27,70.27,0,0,1,572.57,9a69.52,69.52,0,0,1,54.86,0,70.16,70.16,0,0,1,22.41,15.38,72.9,72.9,0,0,1,15.1,78.7,71.63,71.63,0,0,1-15.1,22.82,70.19,70.19,0,0,1-22.41,15.39A68.93,68.93,0,0,1,600,146.93Z"/><path class="cls-1" d="M600,144.78a66.85,66.85,0,0,1-26.61-5.47,67.94,67.94,0,0,1-21.74-14.92A70.74,70.74,0,0,1,537,48,69.4,69.4,0,0,1,551.65,25.9,68.13,68.13,0,0,1,573.39,11a67.46,67.46,0,0,1,53.22,0A68.13,68.13,0,0,1,648.35,25.9,69.4,69.4,0,0,1,663,48a70.44,70.44,0,0,1-14.65,76.35,67.94,67.94,0,0,1-21.74,14.92A66.85,66.85,0,0,1,600,144.78Z"/><g id="MYPIE_LTD" data-name="MYPIE LTD"><path class="cls-1" d="M422.42,39.27V51.05a.22.22,0,0,1-.24.25h-1.65a.22.22,0,0,1-.25-.25V45.51L419.15,50c0,.06,0,.09-.09.09s-.06,0-.08-.09l-1.14-4.52v5.54a.22.22,0,0,1-.24.25h-1.66a.22.22,0,0,1-.24-.25V39.27c0-.17.08-.25.24-.25h1.47a.25.25,0,0,1,.18.08.45.45,0,0,1,.11.17l1.36,6.27,1.36-6.27a.45.45,0,0,1,.11-.17.29.29,0,0,1,.18-.08h1.47C422.34,39,422.42,39.1,422.42,39.27Z"/><path class="cls-1" d="M429.36,39.1a.2.2,0,0,1,0,.17l-2,7.26v4.52a.22.22,0,0,1-.25.25H425.6a.22.22,0,0,1-.24-.25V46.53l-2-7.26a.2.2,0,0,1,0-.17.19.19,0,0,1,.16-.08h1.82a.26.26,0,0,1,.28.25l.69,4.41h.06l.69-4.41a.26.26,0,0,1,.28-.25h1.82A.19.19,0,0,1,429.36,39.1Z"/><path class="cls-1" d="M433.16,39a2.22,2.22,0,0,1,.85.17,2.38,2.38,0,0,1,.69.48,2.24,2.24,0,0,1,.46.7,2.06,2.06,0,0,1,.17.86v2.86a2.1,2.1,0,0,1-.17.86,2.24,2.24,0,0,1-.46.7,2.17,2.17,0,0,1-.69.47,2.06,2.06,0,0,1-.85.18h-.81v4.75a.22.22,0,0,1-.24.25h-1.53a.22.22,0,0,1-.24-.25V39.27c0-.17.08-.25.24-.25Zm.16,2.3a.41.41,0,0,0-.12-.3.4.4,0,0,0-.29-.12h-.56v3.52h.56a.4.4,0,0,0,.29-.12.41.41,0,0,0,.12-.3Z"/><path class="cls-1" d="M438.47,51.05a.22.22,0,0,1-.24.25h-1.54a.22.22,0,0,1-.24-.25V39.27c0-.17.08-.25.24-.25h1.54c.16,0,.24.08.24.25Z"/><path class="cls-1" d="M444.24,49.49v1.56a.22.22,0,0,1-.25.25h-3.73a.22.22,0,0,1-.24-.25V39.27c0-.17.08-.25.24-.25H444a.22.22,0,0,1,.25.25v1.56c0,.16-.08.24-.25.24h-2V43.6h1.71a.21.21,0,0,1,.24.24V45.4c0,.17-.08.25-.24.25H442v3.59h2A.22.22,0,0,1,444.24,49.49Z"/><path class="cls-1" d="M452.45,49.49v1.56a.22.22,0,0,1-.24.25H448.3a.22.22,0,0,1-.24-.25V39.27c0-.17.08-.25.24-.25h1.53c.16,0,.24.08.24.25v10h2.14A.22.22,0,0,1,452.45,49.49Z"/><path class="cls-1" d="M457.2,39.27v1.56a.21.21,0,0,1-.24.24h-1.22v10a.22.22,0,0,1-.24.25H454a.28.28,0,0,1-.16-.07.25.25,0,0,1-.08-.18v-10h-1.2a.21.21,0,0,1-.24-.24V39.27c0-.17.08-.25.24-.25H457C457.12,39,457.2,39.1,457.2,39.27Z"/><path class="cls-1" d="M461.23,39a2.09,2.09,0,0,1,1.53.65,2.27,2.27,0,0,1,.47.7,2.24,2.24,0,0,1,.17.86v7.86a2.18,2.18,0,0,1-.64,1.56,2.2,2.2,0,0,1-1.53.65h-2.58a.22.22,0,0,1-.24-.25V39.27c0-.17.08-.25.24-.25Zm.16,2.3a.42.42,0,0,0-.13-.3.38.38,0,0,0-.29-.12h-.55v8.52H461a.38.38,0,0,0,.29-.12.42.42,0,0,0,.13-.3Z"/></g><g id="EST._2014" data-name="EST. 2014"><path class="cls-1" d="M747.09,109.81v1.56a.21.21,0,0,1-.24.24h-3.74a.21.21,0,0,1-.24-.24V99.58a.21.21,0,0,1,.24-.24h3.74a.21.21,0,0,1,.24.24v1.56c0,.17-.08.25-.24.25h-2v2.52h1.7a.22.22,0,0,1,.24.25v1.56a.21.21,0,0,1-.24.24h-1.7v3.6h2C747,109.56,747.09,109.64,747.09,109.81Z"/><path class="cls-1" d="M751.79,99.39a2.22,2.22,0,0,1,.69.47,2.18,2.18,0,0,1,.64,1.56v.67a.29.29,0,0,1-.23.31l-1.56.43c-.15,0-.23,0-.23-.18v-1.14a.41.41,0,0,0-.12-.3.4.4,0,0,0-.29-.12h-.14a.4.4,0,0,0-.29.12.41.41,0,0,0-.12.3v1.6a1,1,0,0,0,.07.33.77.77,0,0,0,.19.28l2.25,1.72a1.15,1.15,0,0,1,.36.5,4.12,4.12,0,0,1,.11.57v3a2.19,2.19,0,0,1-.17.85,2.31,2.31,0,0,1-.47.71,2.41,2.41,0,0,1-.69.47,2,2,0,0,1-.84.18h-.66a2,2,0,0,1-.84-.18,2.55,2.55,0,0,1-.69-.47,2.29,2.29,0,0,1-.46-.71,2,2,0,0,1-.18-.85v-1.69a.29.29,0,0,1,.23-.31l1.56-.42c.15,0,.23,0,.23.17v2.16a.42.42,0,0,0,.12.3.4.4,0,0,0,.29.12h.14a.4.4,0,0,0,.29-.12.42.42,0,0,0,.12-.3v-2.32a1.59,1.59,0,0,0-.07-.4.69.69,0,0,0-.2-.32l-2.22-1.73a1.54,1.54,0,0,1-.37-.49,1.51,1.51,0,0,1-.12-.65v-2.11a2.11,2.11,0,0,1,.18-.86,2.24,2.24,0,0,1,.46-.7,2.34,2.34,0,0,1,.69-.47,2,2,0,0,1,.84-.18H751A2,2,0,0,1,751.79,99.39Z"/><path class="cls-1" d="M758.73,99.58v1.56c0,.17-.08.25-.24.25h-1.22v10a.21.21,0,0,1-.24.24h-1.54a.23.23,0,0,1-.16-.07.21.21,0,0,1-.08-.17v-10h-1.2c-.16,0-.24-.08-.24-.25V99.58a.21.21,0,0,1,.24-.24h4.44A.21.21,0,0,1,758.73,99.58Z"/><path class="cls-1" d="M759,110.61a1.11,1.11,0,0,1,.33-.79,1,1,0,0,1,.77-.33,1.07,1.07,0,0,1,.78.33,1.14,1.14,0,0,1,.32.79,1.1,1.1,0,0,1-.32.79,1,1,0,0,1-.78.34,1,1,0,0,1-.77-.34A1.07,1.07,0,0,1,759,110.61Z"/><path class="cls-1" d="M767.81,107.25l-.11.16-.1.17a7,7,0,0,0-.43.79,6.36,6.36,0,0,0-.28.65,5.41,5.41,0,0,0-.2.61h2.67c.1,0,.15.05.15.16v1.66c0,.11,0,.16-.15.16h-4.55c-.08,0-.13,0-.16-.16s0-.44-.06-.65,0-.42,0-.59a5.48,5.48,0,0,1,.07-.6,3.19,3.19,0,0,1,.12-.63l.17-.54a4.08,4.08,0,0,1,.23-.51c.3-.55.58-1,.84-1.46s.5-.78.71-1.08.46-.66.67-.91a.74.74,0,0,0,.07-.37,4.57,4.57,0,0,1,0-.53v-2.07a.41.41,0,0,0-.12-.3.4.4,0,0,0-.29-.12h-.14a.41.41,0,0,0-.42.42v1.16a.29.29,0,0,1-.22.31l-1.57.43c-.15,0-.22,0-.22-.18v-1.81a2.18,2.18,0,0,1,.64-1.56,2.11,2.11,0,0,1,.69-.47,2,2,0,0,1,.84-.18h.65a2.06,2.06,0,0,1,.85.18,2.34,2.34,0,0,1,.69.47,2.24,2.24,0,0,1,.46.7,2.1,2.1,0,0,1,.17.86v2.09a4.08,4.08,0,0,1-.13,1,3.07,3.07,0,0,1-.42,1c-.17.28-.36.57-.56.86S768,107,767.81,107.25Z"/><path class="cls-1" d="M775.88,109.53a2.19,2.19,0,0,1-.17.85,2.31,2.31,0,0,1-.47.71,2.36,2.36,0,0,1-.68.47,2.06,2.06,0,0,1-.85.18h-.65a2.06,2.06,0,0,1-.85-.18,2.55,2.55,0,0,1-.69-.47,2.29,2.29,0,0,1-.46-.71,2,2,0,0,1-.17-.85v-8.11a2.1,2.1,0,0,1,.17-.86,2.24,2.24,0,0,1,.46-.7,2.34,2.34,0,0,1,.69-.47,2.06,2.06,0,0,1,.85-.18h.65a2.06,2.06,0,0,1,.85.18,2.18,2.18,0,0,1,.68.47,2.18,2.18,0,0,1,.64,1.56Zm-2-8a.41.41,0,0,0-.12-.3.42.42,0,0,0-.3-.12h-.13a.41.41,0,0,0-.42.42v7.93a.42.42,0,0,0,.12.3.41.41,0,0,0,.3.12h.13a.41.41,0,0,0,.42-.42Z"/><path class="cls-1" d="M780.74,99.58v11.79a.21.21,0,0,1-.24.24H779a.21.21,0,0,1-.24-.24v-8.81a2.85,2.85,0,0,1-.56.35,1.94,1.94,0,0,1-.63.23.2.2,0,0,1-.19,0,.22.22,0,0,1-.08-.18v-1.31a.23.23,0,0,1,.06-.16.24.24,0,0,1,.15-.09,2.45,2.45,0,0,0,.72-.44,2.83,2.83,0,0,0,.54-.59,2,2,0,0,0,.32-.86.18.18,0,0,1,.19-.14h1.27A.23.23,0,0,1,780.74,99.58Z"/><path class="cls-1" d="M787.38,107.3a.21.21,0,0,1,.07.16v1.45a.24.24,0,0,1-.07.18.45.45,0,0,1-.15.07h-.55v2.21a.21.21,0,0,1-.24.24H784.9a.21.21,0,0,1-.24-.24v-2.21H782a.23.23,0,0,1-.15-.07.21.21,0,0,1-.07-.18v-1.49c0-.06,0-.1,0-.12s0,0,0,0a23.31,23.31,0,0,0,1.12-2.59q.44-1.26.69-2.28c.17-.69.3-1.27.37-1.76s.13-.85.15-1.06a.19.19,0,0,1,0-.1.6.6,0,0,0,.08-.08.17.17,0,0,1,.13,0h2.07a.21.21,0,0,1,.24.24v7.65h.55A.31.31,0,0,1,787.38,107.3Zm-2.73-4.11c-.07.37-.17.76-.28,1.2a13.36,13.36,0,0,1-.39,1.28c-.16.48-.36,1-.59,1.56h1.26Z"/></g><g id="Award_Winning_Pies" data-name="Award Winning Pies"><path class="cls-3" d="M560,45.56a.19.19,0,0,1,.1.31l-.86,1.37a.23.23,0,0,1-.34.09l-1.67-.91-.58.93,1.51,1.15a.25.25,0,0,1,.07.36l-.85,1.36c-.09.14-.2.16-.32.05l-9.2-7.54a.27.27,0,0,1-.05-.38l1.24-2a.25.25,0,0,1,.35-.11Zm-4.49-.09-4.17-2.31-.08.12,3.81,2.88Z"/><path class="cls-3" d="M557.48,30.11l7.44,9.48a.26.26,0,0,1,0,.38l-1,1.18a.25.25,0,0,1-.37,0l-3.66-2.46v0l2.85,3.39a.26.26,0,0,1,0,.38l-1,1.17a.25.25,0,0,1-.37.05l-10.17-6.33a.19.19,0,0,1,0-.32l1.25-1.44a.23.23,0,0,1,.35,0l5.87,4.2,0-.05-5-5.26a.25.25,0,0,1,0-.36l.94-1.08a.24.24,0,0,1,.36,0l5.73,4.35,0,0-4.83-5.41a.25.25,0,0,1,0-.36l1.25-1.44A.18.18,0,0,1,557.48,30.11Z"/><path class="cls-3" d="M570.46,34.65a.19.19,0,0,1,0,.33l-1.21,1a.24.24,0,0,1-.36,0l-1.32-1.37-.83.71,1.11,1.56a.25.25,0,0,1-.05.36l-1.21,1c-.13.11-.23.09-.32,0l-6.56-10a.28.28,0,0,1,.06-.38l1.76-1.51a.26.26,0,0,1,.38,0Zm-4.26-1.46-3.3-3.47-.11.1,2.8,3.9Z"/><path class="cls-3" d="M575.67,31.16c.12.12.12.22,0,.3l-1.33.88a.37.37,0,0,1-.21.06.33.33,0,0,1-.2-.08l-3.41-2.94L573,33.24l-.11-.14a.21.21,0,0,1-.09.27l-1.31.87a.22.22,0,0,1-.34-.08l-6.39-10a.22.22,0,0,1,.07-.35L567,22.35a2.17,2.17,0,0,1,.81-.33,2.42,2.42,0,0,1,.85,0,2.12,2.12,0,0,1,.77.34,2.07,2.07,0,0,1,.62.63l1.55,2.43a2.2,2.2,0,0,1,.35,1.18,2.25,2.25,0,0,1-.29,1.16Zm-6.42-3.77.47-.31a.44.44,0,0,0,.18-.27.45.45,0,0,0-.06-.32l-1.46-2.28a.37.37,0,0,0-.26-.18.37.37,0,0,0-.32.06l-.47.31Z"/><path class="cls-3" d="M573.77,18.51a2.28,2.28,0,0,1,.84-.22,2.18,2.18,0,0,1,.84.13,2.06,2.06,0,0,1,.72.43,2,2,0,0,1,.53.7l3.41,7.18a2,2,0,0,1,.22.86,2.4,2.4,0,0,1-.12.85,2.18,2.18,0,0,1-.42.74,2.06,2.06,0,0,1-.7.54l-2.36,1.16a.2.2,0,0,1-.32-.11L571.29,20a.22.22,0,0,1,.12-.33Zm1.13,2a.43.43,0,0,0-.24-.22.45.45,0,0,0-.32,0l-.5.25,3.7,7.78.5-.25a.4.4,0,0,0,.22-.24.47.47,0,0,0,0-.33Z"/><path class="cls-3" d="M592.4,13l.34,12.13a.26.26,0,0,1-.23.3l-1.5.31a.24.24,0,0,1-.32-.18l-1.48-4.22h0l.27,4.46a.25.25,0,0,1-.22.3l-1.51.32a.26.26,0,0,1-.32-.19L583,15a.19.19,0,0,1,.16-.28l1.85-.39a.24.24,0,0,1,.3.19l2.2,7,.07,0-.85-7.23a.25.25,0,0,1,.21-.29l1.39-.29a.24.24,0,0,1,.3.19l2,7h.07l-.66-7.27a.25.25,0,0,1,.21-.3l1.85-.38C592.31,12.81,592.39,12.87,592.4,13Z"/><path class="cls-3" d="M597.48,24.76a.22.22,0,0,1-.23.26l-1.55.12a.22.22,0,0,1-.26-.23L594.6,13a.22.22,0,0,1,.23-.26l1.55-.11c.16,0,.25.06.26.23Z"/><path class="cls-3" d="M604.71,12.87l-.37,11.94a.22.22,0,0,1-.25.25L603,25a.29.29,0,0,1-.19-.08.32.32,0,0,1-.13-.16L601,18.84l-.18,5.86a.22.22,0,0,1-.25.25L599,24.9c-.17,0-.25-.09-.24-.26l.36-12a.22.22,0,0,1,.25-.24l1.15,0a.42.42,0,0,1,.33.24l1.64,5.76.17-5.68a.23.23,0,0,1,.26-.25l1.55,0A.23.23,0,0,1,604.71,12.87Z"/><path class="cls-3" d="M613,14.11l-2,11.78a.22.22,0,0,1-.28.21l-1.1-.19a.4.4,0,0,1-.29-.29l-.85-6.12-1,5.79a.21.21,0,0,1-.28.2l-1.53-.27a.21.21,0,0,1-.2-.28l2-11.79a.22.22,0,0,1,.29-.2l1.13.2a.32.32,0,0,1,.19.1.41.41,0,0,1,.1.18l.85,5.94.94-5.61a.21.21,0,0,1,.28-.2l1.53.26A.22.22,0,0,1,613,14.11Z"/><path class="cls-3" d="M614.28,26.84a.21.21,0,0,1-.3.17l-1.49-.43a.21.21,0,0,1-.17-.3l3.16-11.51a.22.22,0,0,1,.3-.18l1.5.43a.23.23,0,0,1,.17.31Z"/><path class="cls-3" d="M625.06,18.16l-4.33,11.11a.21.21,0,0,1-.31.14l-1-.42a.36.36,0,0,1-.16-.14.35.35,0,0,1-.07-.2l.41-6.17-2.12,5.46a.22.22,0,0,1-.32.14l-1.44-.59a.22.22,0,0,1-.14-.32l4.33-11.11a.22.22,0,0,1,.32-.14l1.07.43a.38.38,0,0,1,.16.15.35.35,0,0,1,.06.19l-.38,6,2.06-5.29a.22.22,0,0,1,.32-.14l1.45.59A.22.22,0,0,1,625.06,18.16Z"/><path class="cls-3" d="M630.74,21a2.25,2.25,0,0,1,.45,1.62,2.33,2.33,0,0,1-.26.85l-.28.49a.28.28,0,0,1-.35.17l-1.67-.27c-.15,0-.19-.13-.11-.27l.58-1.06a.43.43,0,0,0-.16-.58l-.13-.07a.44.44,0,0,0-.32,0,.43.43,0,0,0-.25.21l-3.84,7a.47.47,0,0,0,0,.33.43.43,0,0,0,.21.25l.12.07a.39.39,0,0,0,.32,0,.41.41,0,0,0,.25-.2l1.51-2.77-.43-.24,1-1.77,2,1.13a.22.22,0,0,1,.09.34l-2.4,4.4a2.18,2.18,0,0,1-.57.67,2.24,2.24,0,0,1-.75.39,2.15,2.15,0,0,1-.84.07,2.08,2.08,0,0,1-.83-.27l-.58-.33a2.09,2.09,0,0,1-.67-.58,2.25,2.25,0,0,1-.45-1.62,2.34,2.34,0,0,1,.26-.84l3.93-7.18a2.22,2.22,0,0,1,1.32-1.07,2.36,2.36,0,0,1,.84-.07,2.08,2.08,0,0,1,.83.27l.58.33A2.09,2.09,0,0,1,630.74,21Z"/><path class="cls-3" d="M640.59,28.2a2.1,2.1,0,0,1,.53.7,2.28,2.28,0,0,1,.22.83,2.32,2.32,0,0,1-.11.86,2,2,0,0,1-.43.77l-1.87,2.18a2,2,0,0,1-.69.54,2,2,0,0,1-.82.22,2.13,2.13,0,0,1-1.59-.54l-.62-.55-3.11,3.63a.22.22,0,0,1-.35,0l-1.17-1a.22.22,0,0,1,0-.35l7.71-9a.22.22,0,0,1,.35,0Zm-1.38,1.86a.43.43,0,0,0,.1-.31.42.42,0,0,0-.14-.29l-.42-.38-2.31,2.7.42.37a.43.43,0,0,0,.3.11.41.41,0,0,0,.29-.15Z"/><path class="cls-3" d="M636.37,41.07a.21.21,0,0,1-.34,0L635,39.91a.22.22,0,0,1,0-.35l8.52-8.23a.21.21,0,0,1,.34,0l1.07,1.15a.22.22,0,0,1,0,.35Z"/><path class="cls-3" d="M641.15,44.49l-1.22,1a.21.21,0,0,1-.34,0l-2.35-3a.22.22,0,0,1,0-.35l9.2-7.42a.21.21,0,0,1,.34,0l2.35,3a.22.22,0,0,1,0,.35l-1.21,1a.22.22,0,0,1-.35,0l-1.23-1.59-2,1.59,1.07,1.38a.22.22,0,0,1,0,.35l-1.22,1a.21.21,0,0,1-.34,0l-1.08-1.38L640,42.55l1.23,1.59A.22.22,0,0,1,641.15,44.49Z"/><path class="cls-3" d="M652.47,42.87a2.07,2.07,0,0,1,0,.86,2.26,2.26,0,0,1-.34.78,2.32,2.32,0,0,1-.63.62l-.57.35a.29.29,0,0,1-.38,0l-1.2-1.15c-.12-.1-.11-.2,0-.29l1-.61a.41.41,0,0,0,.19-.27.45.45,0,0,0-.06-.32l-.07-.12a.42.42,0,0,0-.26-.19.4.4,0,0,0-.32.05l-1.35.86a1.36,1.36,0,0,0-.24.24.86.86,0,0,0-.14.32l-.23,2.9a1.07,1.07,0,0,1-.24.57,2.34,2.34,0,0,1-.42.41l-2.55,1.62a2.06,2.06,0,0,1-.81.31,2.42,2.42,0,0,1-.85,0,2,2,0,0,1-.76-.35,2.07,2.07,0,0,1-.61-.64l-.35-.58a2.13,2.13,0,0,1-.3-.83,2.29,2.29,0,0,1,.37-1.64,1.93,1.93,0,0,1,.63-.61l1.42-.91a.29.29,0,0,1,.39,0l1.2,1.14c.12.11.11.21,0,.29l-1.82,1.16a.44.44,0,0,0-.19.27.4.4,0,0,0,.05.32l.08.12a.38.38,0,0,0,.26.19.4.4,0,0,0,.32,0l2-1.25a2,2,0,0,0,.3-.27.71.71,0,0,0,.16-.35l.27-2.88a1.69,1.69,0,0,1,.22-.59,1.68,1.68,0,0,1,.49-.45l1.77-1.13a2.11,2.11,0,0,1,.82-.31,2.36,2.36,0,0,1,.84,0,2.24,2.24,0,0,1,.77.35,2.19,2.19,0,0,1,.61.64l.35.58A2.13,2.13,0,0,1,652.47,42.87Z"/></g><g id="WWW.MYPIE.LONDON"><path class="cls-3" d="M565.73,114.61l-9.93,6.7a.25.25,0,0,1-.37,0l-1.06-1.14a.25.25,0,0,1,0-.37l2.73-3.5v0l-3.58,2.6a.25.25,0,0,1-.37,0l-1.06-1.13a.27.27,0,0,1,0-.38l7.09-9.75c.1-.13.21-.14.32,0l1.3,1.39a.24.24,0,0,1,0,.36l-4.62,5.58.05,0,5.57-4.56a.24.24,0,0,1,.36,0l1,1a.26.26,0,0,1,0,.37l-4.76,5.43,0,0,5.7-4.41a.24.24,0,0,1,.36,0l1.3,1.39A.2.2,0,0,1,565.73,114.61Z"/><path class="cls-3" d="M573.12,120.13l-8.63,8.37a.25.25,0,0,1-.37,0l-1.23-.93a.26.26,0,0,1-.08-.37l2.09-3.94h0l-3.07,3.2a.25.25,0,0,1-.37,0l-1.24-.93a.27.27,0,0,1-.08-.37l5.32-10.86c.08-.15.18-.17.31-.08l1.52,1.15a.24.24,0,0,1,.06.35l-3.6,6.32.06,0,4.71-5.48a.25.25,0,0,1,.36,0l1.13.86a.24.24,0,0,1,.07.35L566.3,124l.06,0,4.87-5.36a.24.24,0,0,1,.35,0l1.52,1.14A.19.19,0,0,1,573.12,120.13Z"/><path class="cls-3" d="M581.33,124.23,574.27,134a.25.25,0,0,1-.35.1l-1.38-.7a.26.26,0,0,1-.14-.35l1.38-4.24h0l-2.47,3.69a.26.26,0,0,1-.36.1l-1.38-.7a.26.26,0,0,1-.14-.35l3.36-11.64a.19.19,0,0,1,.3-.13l1.69.86a.25.25,0,0,1,.12.34l-2.45,6.85.06,0,3.69-6.24a.26.26,0,0,1,.35-.1l1.26.64a.25.25,0,0,1,.13.34l-2.63,6.77.06,0,3.87-6.15a.24.24,0,0,1,.34-.1l1.69.85C581.4,124,581.42,124.09,581.33,124.23Z"/><path class="cls-3" d="M577,134.29a1.16,1.16,0,0,1,.59-.64,1.05,1.05,0,0,1,.85,0,1.09,1.09,0,0,1,.62.59,1.14,1.14,0,0,1,0,.87,1.08,1.08,0,0,1-.59.63,1,1,0,0,1-.85,0,1.11,1.11,0,0,1-.62-.6A1.12,1.12,0,0,1,577,134.29Z"/><path class="cls-3" d="M590.12,126.68l-3,11.56a.22.22,0,0,1-.3.18l-1.62-.44a.21.21,0,0,1-.17-.3l1.4-5.44-2.26,4.14c0,.06-.08.08-.11.07s-.05,0-.06-.11l0-4.74-1.4,5.44a.22.22,0,0,1-.3.18l-1.62-.44a.22.22,0,0,1-.18-.3l3-11.56a.22.22,0,0,1,.3-.18l1.43.38a.26.26,0,0,1,.16.13.49.49,0,0,1,.07.19l-.25,6.52,2.92-5.8a.41.41,0,0,1,.15-.14.24.24,0,0,1,.2,0l1.43.39A.22.22,0,0,1,590.12,126.68Z"/><path class="cls-3" d="M596.54,127.33a.18.18,0,0,1,0,.16l-2.89,7.06-.55,4.55a.22.22,0,0,1-.28.22l-1.56-.2a.22.22,0,0,1-.21-.28l.56-4.55-1.1-7.56a.21.21,0,0,1,0-.17.18.18,0,0,1,.17-.06l1.83.24a.26.26,0,0,1,.25.28l.15,4.54H593l1.23-4.35a.26.26,0,0,1,.31-.22l1.84.24A.16.16,0,0,1,596.54,127.33Z"/><path class="cls-3" d="M599.93,127.28a2,2,0,0,1,.85.19,2.16,2.16,0,0,1,.69.49,2.27,2.27,0,0,1,.46.72,2,2,0,0,1,.16.87l0,2.9a2.3,2.3,0,0,1-.19.87,2.34,2.34,0,0,1-.48.71,2.29,2.29,0,0,1-.71.46,2.1,2.1,0,0,1-.86.17l-.82,0-.08,4.82c0,.17-.08.25-.24.25l-1.56,0c-.16,0-.24-.08-.24-.25l.19-12c0-.17.09-.25.25-.25Zm.12,2.33a.41.41,0,0,0-.12-.3.37.37,0,0,0-.29-.13h-.56l-.06,3.57h.56a.41.41,0,0,0,.3-.12.46.46,0,0,0,.13-.3Z"/><path class="cls-3" d="M605.68,139.23a.21.21,0,0,1-.22.26l-1.55.12a.22.22,0,0,1-.26-.23l-.85-11.92c0-.17.06-.26.23-.27l1.54-.12c.17,0,.25.07.27.24Z"/><path class="cls-3" d="M611.84,136.78l.24,1.56a.22.22,0,0,1-.2.29l-3.75.6a.21.21,0,0,1-.27-.21L606,127.21a.21.21,0,0,1,.2-.28l3.74-.6a.21.21,0,0,1,.28.21l.24,1.56a.22.22,0,0,1-.2.29l-2,.31.39,2.53,1.71-.27a.21.21,0,0,1,.28.2l.24,1.57a.21.21,0,0,1-.2.28l-1.71.28.56,3.6,2-.32A.22.22,0,0,1,611.84,136.78Z"/><path class="cls-3" d="M613.45,137.25a1.14,1.14,0,0,1,.14-.86,1.05,1.05,0,0,1,.69-.51,1.09,1.09,0,0,1,.84.14,1.08,1.08,0,0,1,.5.7,1.09,1.09,0,0,1-.14.86,1.06,1.06,0,0,1-.68.51A1,1,0,0,1,614,138,1.11,1.11,0,0,1,613.45,137.25Z"/><path class="cls-3" d="M621.3,134.12l.48,1.5a.22.22,0,0,1-.16.32l-2.24.73h0l-1.48.48a.22.22,0,0,1-.31-.16L614,125.63a.22.22,0,0,1,.16-.31l1.48-.49a.22.22,0,0,1,.31.16l3,9.64L621,134A.2.2,0,0,1,621.3,134.12Z"/><path class="cls-3" d="M627.11,131.29a2.19,2.19,0,0,1,.18.87,2.32,2.32,0,0,1-.15.84,2.22,2.22,0,0,1-.45.73,2,2,0,0,1-.71.51l-.61.28a2.13,2.13,0,0,1-.85.18,2.31,2.31,0,0,1-.83-.15,2.17,2.17,0,0,1-.71-.46,2.05,2.05,0,0,1-.51-.72l-3.24-7.53A2.2,2.2,0,0,1,619,125a2.32,2.32,0,0,1,.15-.84,2.62,2.62,0,0,1,.45-.73,2.05,2.05,0,0,1,.72-.51l.61-.27a2,2,0,0,1,.85-.19,2.31,2.31,0,0,1,.83.15,2.34,2.34,0,0,1,.71.46,2.07,2.07,0,0,1,.5.73Zm-5.08-6.6a.43.43,0,0,0-.23-.23.4.4,0,0,0-.32,0l-.13,0a.4.4,0,0,0-.22.24.42.42,0,0,0,0,.33l3.18,7.36a.36.36,0,0,0,.23.22.4.4,0,0,0,.32,0l.13-.06a.43.43,0,0,0,.22-.24.4.4,0,0,0,0-.32Z"/><path class="cls-3" d="M628.7,118.78l6,10.29a.22.22,0,0,1-.09.34l-1,.58a.36.36,0,0,1-.21,0,.47.47,0,0,1-.19-.07l-4.53-4.11,2.93,5a.22.22,0,0,1-.09.34l-1.34.8a.21.21,0,0,1-.33-.08l-6-10.29a.22.22,0,0,1,.09-.34l1-.6a.3.3,0,0,1,.21,0,.29.29,0,0,1,.19.07l4.41,4-2.84-4.9a.22.22,0,0,1,.09-.34l1.34-.81A.21.21,0,0,1,628.7,118.78Z"/><path class="cls-3" d="M631.66,116.21a2,2,0,0,1,.79-.39,2.2,2.2,0,0,1,1.64.22,2.42,2.42,0,0,1,.66.58l4.76,6.33a2.19,2.19,0,0,1,.38.8,2.23,2.23,0,0,1,.05.85,2.4,2.4,0,0,1-.27.82,2.15,2.15,0,0,1-.57.67L637,127.71a.21.21,0,0,1-.34,0l-7.14-9.49a.22.22,0,0,1,0-.35Zm1.52,1.75a.4.4,0,0,0-.28-.16.39.39,0,0,0-.31.08l-.44.35,5.16,6.86.44-.35a.42.42,0,0,0,.17-.28.46.46,0,0,0-.09-.32Z"/><path class="cls-3" d="M644.6,118.26a2,2,0,0,1,.47.75,2.48,2.48,0,0,1,.15.84,2.43,2.43,0,0,1-.18.84,2.13,2.13,0,0,1-.49.73l-.48.47a2.05,2.05,0,0,1-.74.48,2.14,2.14,0,0,1-1.65,0,2.11,2.11,0,0,1-.72-.51l-5.6-5.92a2.21,2.21,0,0,1-.61-1.59,2,2,0,0,1,.18-.84,2.13,2.13,0,0,1,.49-.74l.48-.46a2,2,0,0,1,.74-.48,2.14,2.14,0,0,1,1.65,0,2.11,2.11,0,0,1,.72.51Zm-7-4.42a.42.42,0,0,0-.3-.13.4.4,0,0,0-.29.12l-.1.1a.38.38,0,0,0-.13.3.4.4,0,0,0,.11.31l5.48,5.79a.46.46,0,0,0,.29.13.41.41,0,0,0,.3-.12l.1-.1a.38.38,0,0,0,.13-.3.41.41,0,0,0-.12-.3Z"/><path class="cls-3" d="M641.86,106l9.08,7.57a.22.22,0,0,1,0,.35l-.7.88a.36.36,0,0,1-.18.12.37.37,0,0,1-.21,0l-5.64-2.27,4.45,3.71a.22.22,0,0,1,0,.35l-1,1.23a.21.21,0,0,1-.34,0l-9.08-7.57a.22.22,0,0,1,0-.35l.73-.91a.33.33,0,0,1,.18-.11.34.34,0,0,1,.2,0l5.49,2.18-4.32-3.6a.22.22,0,0,1,0-.35l1-1.23A.21.21,0,0,1,641.86,106Z"/></g></svg>